<svg xmlns="http://www.w3.org/2000/svg" viewBox="0 0 512 512">
  <defs>
    <radialGradient id="bg" cx="50%" cy="42%" r="70%">
      <stop offset="0%" stop-color="#1c2414"/>
      <stop offset="100%" stop-color="#070a06"/>
    </radialGradient>
    <radialGradient id="core" cx="50%" cy="50%" r="50%">
      <stop offset="0%" stop-color="#eaffb0"/>
      <stop offset="45%" stop-color="#9bdb1d"/>
      <stop offset="100%" stop-color="#3a6a0c"/>
    </radialGradient>
  </defs>
  <rect width="512" height="512" rx="96" fill="url(#bg)"/>
  <!-- hazard ring -->
  <circle cx="256" cy="256" r="150" fill="none" stroke="#9bdb1d" stroke-width="10" opacity="0.5"/>
  <!-- radioactive trefoil -->
  <g fill="#9bdb1d" transform="translate(256,256)">
    <circle r="26"/>
    <g>
      <path d="M0,-44 A44,44 0 0 1 38,22 L20,12 A24,24 0 0 0 0,-24 Z"/>
      <path d="M0,-44 A44,44 0 0 1 38,22 L20,12 A24,24 0 0 0 0,-24 Z" transform="rotate(120)"/>
      <path d="M0,-44 A44,44 0 0 1 38,22 L20,12 A24,24 0 0 0 0,-24 Z" transform="rotate(240)"/>
    </g>
  </g>
  <!-- glowing artifact above -->
  <circle cx="256" cy="150" r="30" fill="url(#core)"/>
  <text x="256" y="430" font-family="Courier New, monospace" font-size="58" font-weight="bold"
        fill="#cdd9a8" text-anchor="middle" letter-spacing="6">ZONE</text>
</svg>
